# Blender v3.0.0 OBJ File: ''
# www.blender.org
mtllib arrow_arrow.mtl
o Cube_Cube.001
v -0.017678 0.017678 -0.500000
v -0.017678 0.017678 0.298808
v 0.017678 0.017678 -0.500000
v 0.017678 0.017678 0.298808
v -0.017678 -0.017678 -0.500000
v -0.017678 -0.017678 0.298808
v 0.017678 -0.017678 -0.500000
v 0.017678 -0.017678 0.298808
v 0.025000 -0.000000 -0.500000
v 0.025000 -0.000000 0.298808
v -0.025000 -0.000000 -0.500000
v -0.025000 -0.000000 0.298808
v 0.000000 0.025000 -0.500000
v 0.000000 0.025000 0.298808
v 0.000000 -0.025000 -0.500000
v 0.000000 -0.025000 0.298808
v 0.000000 -0.000000 -0.500000
v -0.055103 0.055103 0.350322
v 0.055103 0.055103 0.350322
v -0.055103 -0.055103 0.350322
v 0.055103 -0.055103 0.350322
v 0.077927 -0.000000 0.350322
v -0.077927 -0.000000 0.350322
v 0.000000 0.077927 0.350322
v 0.000000 -0.077927 0.350322
v 0.000000 0.000000 0.494795
v 0.000000 0.000000 0.494795
v 0.000000 0.000000 0.494795
v 0.000000 0.000000 0.494795
v 0.000000 0.000000 0.494795
v 0.000000 0.000000 0.494795
v 0.000000 0.000000 0.494795
v 0.000000 0.000000 0.494795
vt 0.625000 0.125000
vt 0.375000 0.250000
vt 0.375000 0.125000
vt 0.625000 0.375000
vt 0.375000 0.500000
vt 0.375000 0.375000
vt 0.625000 0.625000
vt 0.375000 0.750000
vt 0.375000 0.625000
vt 0.625000 0.875000
vt 0.375000 1.000000
vt 0.375000 0.875000
vt 0.250000 0.625000
vt 0.250000 0.750000
vt 0.125000 0.750000
vt 0.125000 0.625000
vt 0.625000 0.750000
vt 0.625000 0.250000
vt 0.125000 0.500000
vt 0.250000 0.500000
vt 0.625000 0.500000
vt 0.625000 0.000000
vt 0.375000 0.000000
vt 0.625000 0.875000
vt 0.625000 0.500000
vt 0.625000 0.625000
vt 0.625000 0.625000
vt 0.625000 0.375000
vt 0.625000 0.125000
vt 0.625000 0.250000
vt 0.625000 1.000000
vt 0.625000 1.000000
vt 0.625000 0.750000
vt 0.625000 0.000000
vt 0.625000 0.875000
vt 0.625000 0.500000
vt 0.625000 1.000000
vt 0.625000 0.000000
vt 0.625000 0.125000
vt 0.625000 0.375000
vt 0.625000 0.750000
vt 0.625000 0.250000
vn 0.3827 0.9239 0.0000
vn 0.9239 -0.3827 0.0000
vn -0.3827 -0.9239 0.0000
vn -0.9239 0.3827 0.0000
vn 0.0000 0.0000 -1.0000
vn -0.9239 -0.3827 0.0000
vn 0.9239 0.3827 0.0000
vn 0.3827 -0.9239 0.0000
vn -0.3827 0.9239 0.0000
vn -0.6701 -0.2776 -0.6885
vn 0.3425 -0.8269 0.4460
vn 0.6701 0.2776 -0.6885
vn 0.2776 0.6701 -0.6885
vn 0.2776 -0.6701 -0.6885
vn -0.6701 0.2776 -0.6885
vn -0.2776 0.6701 -0.6885
vn 0.6701 -0.2776 -0.6885
vn -0.2776 -0.6701 -0.6885
vn 0.0000 0.0000 1.0000
vn -0.8269 -0.3425 0.4460
vn -0.8269 0.3425 0.4460
vn 0.8269 -0.3425 0.4460
vn -0.3425 0.8269 0.4460
vn 0.8269 0.3425 0.4460
vn -0.3425 -0.8269 0.4460
vn 0.3425 0.8269 0.4460
usemtl None
s off
f 14/1/1 3/2/1 13/3/1
f 10/4/2 7/5/2 9/6/2
f 16/7/3 5/8/3 15/9/3
f 12/10/4 1/11/4 11/12/4
f 17/13/5 5/8/5 11/14/5
f 17/13/5 1/15/5 13/16/5
f 6/17/6 11/12/6 5/8/6
f 4/18/7 9/6/7 3/2/7
f 3/19/5 17/13/5 13/16/5
f 7/5/5 17/13/5 9/20/5
f 8/21/8 15/9/8 7/5/8
f 2/22/9 13/3/9 1/23/9
f 6/17/10 23/24/10 12/10/10
f 21/25/11 33/26/11 25/27/11
f 4/18/12 22/28/12 10/4/12
f 4/18/13 24/29/13 19/30/13
f 8/21/14 25/27/14 16/7/14
f 2/31/15 23/24/15 18/32/15
f 2/22/16 24/29/16 14/1/16
f 8/21/17 22/28/17 21/25/17
f 6/17/18 25/27/18 20/33/18
f 26/34/19 31/35/19 29/36/19
f 20/33/20 31/35/20 23/24/20
f 23/24/21 26/37/21 18/32/21
f 22/28/22 29/36/22 21/25/22
f 18/38/23 32/39/23 24/29/23
f 19/30/24 30/40/24 22/28/24
f 25/27/25 28/41/25 20/33/25
f 24/29/26 27/42/26 19/30/26
f 14/1/1 4/18/1 3/2/1
f 10/4/2 8/21/2 7/5/2
f 16/7/3 6/17/3 5/8/3
f 12/10/4 2/31/4 1/11/4
f 17/13/5 15/9/5 5/8/5
f 17/13/5 11/14/5 1/15/5
f 6/17/6 12/10/6 11/12/6
f 4/18/7 10/4/7 9/6/7
f 3/19/5 9/20/5 17/13/5
f 7/5/5 15/9/5 17/13/5
f 8/21/8 16/7/8 15/9/8
f 2/22/9 14/1/9 13/3/9
f 6/17/10 20/33/10 23/24/10
f 21/25/19 29/36/19 33/26/19
f 4/18/12 19/30/12 22/28/12
f 4/18/13 14/1/13 24/29/13
f 8/21/14 21/25/14 25/27/14
f 2/31/15 12/10/15 23/24/15
f 2/22/16 18/38/16 24/29/16
f 8/21/17 10/4/17 22/28/17
f 6/17/18 16/7/18 25/27/18
f 27/42/19 32/39/19 26/34/19
f 31/35/19 28/41/19 33/26/19
f 30/40/19 27/42/19 26/34/19
f 31/35/19 33/26/19 29/36/19
f 29/36/19 30/40/19 26/34/19
f 20/33/19 28/41/19 31/35/19
f 23/24/19 31/35/19 26/37/19
f 22/28/19 30/40/19 29/36/19
f 18/38/19 26/34/19 32/39/19
f 19/30/19 27/42/19 30/40/19
f 25/27/19 33/26/19 28/41/19
f 24/29/19 32/39/19 27/42/19
