# Blender v3.0.0 OBJ File: ''
# www.blender.org
mtllib arrow_move.mtl
o Cube
v -0.000228 -0.500000 -0.050000
v -0.000228 0.500000 0.050000
v -0.000228 -0.500000 0.050000
v -0.000228 0.500000 -0.050000
v -0.000228 -0.011029 -0.050000
v -0.000228 -0.011029 0.050000
v -0.250228 -0.255515 -0.050000
v 0.249772 -0.255515 0.050000
v -0.000228 -0.255515 -0.050000
v 0.249772 -0.255515 -0.050000
v -0.250228 -0.255515 0.050000
v -0.000228 -0.255515 0.050000
v -0.065009 0.500000 -0.050000
v -0.065009 0.500000 0.050000
v -0.065009 -0.011029 0.050000
v -0.065009 -0.011029 -0.050000
v -0.065009 -0.255515 -0.050000
v -0.065009 -0.255515 0.050000
v 0.063641 0.500000 0.050000
v 0.063641 0.500000 -0.050000
v 0.063641 -0.011029 -0.050000
v 0.063641 -0.011029 0.050000
v 0.063641 -0.255515 -0.050000
v 0.063641 -0.255515 0.050000
vt 0.375000 0.656934
vt 0.752757 0.656934
vt 0.247243 0.656934
vt 0.625000 0.592610
vt 0.375000 0.625000
vt 0.375000 0.592610
vt 0.247243 0.625000
vt 0.247243 0.592610
vt 0.752757 0.592610
vt 0.625000 0.625000
vt 0.186121 0.625000
vt 0.186121 0.592610
vt 0.813879 0.656934
vt 0.813879 0.592610
vt 0.752757 0.625000
vt 0.186121 0.500000
vt 0.186121 0.750000
vt 0.000000 0.000000
vt 0.813879 0.625000
vt 0.813879 0.750000
vt 0.813879 0.500000
vt 0.000000 0.000000
vt 0.186121 0.656934
vt 0.625000 0.656934
vt 0.625000 0.311121
vt 0.625000 0.938879
vn 1.0000 0.0000 0.0000
vn 0.0000 1.0000 0.0000
vn 0.0000 0.0000 -1.0000
vn 0.0000 0.0000 1.0000
vn -1.0000 0.0000 0.0000
vn -0.6992 -0.7149 0.0000
vn 0.6992 -0.7149 0.0000
usemtl Material
s off
f 20/1/1 22/2/1 21/3/1
f 14/4/2 4/5/2 13/6/2
f 13/6/3 5/7/3 16/8/3
f 15/9/4 2/10/4 14/4/4
f 16/8/3 9/11/3 17/12/3
f 24/13/1 21/3/1 22/2/1
f 18/14/4 6/15/4 15/9/4
f 16/8/5 18/14/5 15/9/5
f 15/9/5 13/6/5 16/8/5
f 9/11/4 7/16/4 17/12/4
f 9/11/3 10/17/3 1/18/3
f 12/19/4 8/20/4 24/13/4
f 12/19/4 11/21/4 3/22/4
f 3/22/6 7/16/6 1/18/6
f 10/17/7 3/22/7 1/18/7
f 18/14/2 7/16/2 11/21/2
f 24/13/2 10/17/2 23/23/2
f 12/19/4 22/2/4 6/15/4
f 6/15/4 19/24/4 2/10/4
f 5/7/3 23/23/3 9/11/3
f 2/10/2 20/1/2 4/5/2
f 4/5/3 21/3/3 5/7/3
f 20/1/1 19/24/1 22/2/1
f 14/4/2 2/10/2 4/5/2
f 13/6/3 4/5/3 5/7/3
f 15/9/4 6/15/4 2/10/4
f 16/8/3 5/7/3 9/11/3
f 24/13/1 23/23/1 21/3/1
f 18/14/4 12/19/4 6/15/4
f 16/8/5 17/12/5 18/14/5
f 15/9/5 14/4/5 13/6/5
f 9/11/3 1/18/3 7/16/3
f 9/11/3 23/23/3 10/17/3
f 12/19/4 3/22/4 8/20/4
f 12/19/3 18/14/3 11/21/3
f 3/22/6 11/25/6 7/16/6
f 10/17/7 8/26/7 3/22/7
f 18/14/2 17/12/2 7/16/2
f 24/13/2 8/26/2 10/17/2
f 12/19/4 24/13/4 22/2/4
f 6/15/4 22/2/4 19/24/4
f 5/7/3 21/3/3 23/23/3
f 2/10/2 19/24/2 20/1/2
f 4/5/3 20/1/3 21/3/3
